<?xml version="1.0" encoding="UTF-8"?>
<svg width="1200pt" height="1200pt" version="1.1" viewBox="0 0 1200 1200" xmlns="http://www.w3.org/2000/svg">
 <g>
  <path d="m740.4 645.84c98.398-49.68 63.238-200.04-48-200.04-24.742-0.089843-48.734 8.4922-67.805 24.254-19.074 15.762-32.02 37.707-36.594 62.023 31.969 7.1953 62.059 21.047 88.32 40.648 26.258 19.598 48.09 44.512 64.078 73.113z"/>
  <path d="m395.16 901.56 12.84-12.84c22.199 17.281 60.961 52.078 129.24 52.078v0.003906c47.648-0.38672 93.391-18.773 128.04-51.48l15.121 9h-0.003906c28.301 16.848 62.836 19.543 93.406 7.2891 30.574-12.25 53.688-38.051 62.52-69.777 8.832-31.73 2.375-65.762-17.469-92.047-19.84-26.289-50.801-41.824-83.734-42.023-8.0195-0.019531-16.031 0.41797-24 1.3164l-7.0781-16.32-0.003907 0.003907c-17.656-40.477-49.422-73.152-89.379-91.945-39.957-18.789-85.387-22.418-127.82-10.207s-78.984 39.434-102.84 76.59l-8.6406 13.441c-10.562-1.6562-21.23-2.5391-31.918-2.6406-36.711-0.007812-71.434 16.672-94.375 45.336-22.938 28.66-31.602 66.195-23.551 102.01 8.0547 35.816 31.953 66.027 64.949 82.113 33 16.086 71.52 16.301 104.7 0.57812z"/>
  <path d="m960.96 526.56h-78.242c-5.8516 0-11.258 3.125-14.184 8.1914-2.9258 5.0664-2.9258 11.312 0 16.379 2.9258 5.0703 8.332 8.1914 14.184 8.1914h78.359c5.8555 0 11.262-3.1211 14.188-8.1914 2.9258-5.0664 2.9258-11.312 0-16.379s-8.332-8.1914-14.188-8.1914z"/>
  <path d="m852 469.08c6 0 1.4414 1.8008 82.68-45.121v0.003907c4.7695-3.1055 7.5781-8.4688 7.4102-14.16-0.16406-5.6875-3.2852-10.879-8.2305-13.699-4.9414-2.8164-11-2.8555-15.98-0.10156l-74.398 42.961c-3.9961 2.5234-6.7031 6.6523-7.4219 11.328-0.71484 4.6719 0.62891 9.4258 3.6875 13.027 3.0586 3.6055 7.5273 5.707 12.254 5.7617z"/>
  <path d="m932.76 661.56-64.562-37.559c-5.1016-2.8945-11.359-2.8477-16.418 0.125-5.0547 2.9727-8.1445 8.4141-8.0977 14.281 0.042968 5.8633 3.2148 11.262 8.3164 14.152l64.68 37.32c3.7617 2.1406 8.2148 2.707 12.395 1.5859 4.1758-1.125 7.7422-3.8477 9.9258-7.5859 2.1836-3.7734 2.7539-8.2734 1.5781-12.473-1.1719-4.1992-3.9922-7.75-7.8164-9.8477z"/>
  <path d="m786.24 402.6c12.719 0 12-4.0781 57.238-82.559l0.003907-0.003907c2.9375-5.0586 2.9492-11.301 0.039062-16.371-2.9141-5.0742-8.3125-8.207-14.16-8.2227-5.8516-0.011718-11.262 3.0977-14.199 8.1562l-42.961 74.398c-1.9531 3.3164-2.6719 7.2188-2.0234 11.016 0.64453 3.7969 2.6094 7.2422 5.5508 9.7266 2.9375 2.4844 6.6641 3.8516 10.512 3.8594z"/>
  <path d="m712.92 361.32v-85.32c0-5.8516-3.125-11.258-8.1914-14.184-5.0703-2.9297-11.312-2.9297-16.379 0-5.0703 2.9258-8.1914 8.332-8.1914 14.184v85.922c0.078125 4.3438 1.8828 8.4766 5.0078 11.492 3.1289 3.0156 7.3281 4.6641 11.672 4.5859s8.4805-1.8828 11.496-5.0078c3.0156-3.1289 4.6641-7.3281 4.5859-11.672z"/>
  <path d="m605.04 400.32c5.6914-0.082031 10.926-3.125 13.816-8.0273 2.8945-4.8984 3.0234-10.953 0.34375-15.973l-43.199-74.879c-3.1289-4.625-8.3945-7.3438-13.977-7.2227-5.582 0.125-10.723 3.0703-13.645 7.832-2.9258 4.7578-3.2305 10.672-0.82031 15.711 46.082 79.316 44.883 82.559 57.48 82.559z"/>
  <path d="m454.44 420 68.762 39.719h-0.003906c4.8945 2.2266 10.566 1.9023 15.172-0.87109 4.6055-2.7695 7.5508-7.6289 7.8789-12.996 0.32422-5.3633-2.0117-10.543-6.25-13.852l-68.762-39.719c-3.6758-2.8711-8.4023-4.0312-12.988-3.1875s-8.5898 3.6055-11.008 7.5938c-2.418 3.9883-3.0117 8.8164-1.6367 13.273 1.375 4.4531 4.5898 8.1094 8.8359 10.039z"/>
 </g>
</svg>
