<?xml version="1.0" encoding="UTF-8"?>
<svg width="1200pt" height="1200pt" version="1.1" viewBox="0 0 1200 1200" xmlns="http://www.w3.org/2000/svg">
 <path d="m600 241.04c95.203 0 186.5 37.816 253.82 105.14 67.32 67.32 105.14 158.62 105.14 253.82s-37.816 186.51-105.14 253.83c-67.32 67.32-158.62 105.14-253.82 105.14-63.012 0-124.91-16.586-179.48-48.09-54.57-31.508-99.883-76.82-131.39-131.39-31.504-54.57-48.09-116.47-48.09-179.48 0-95.203 37.816-186.5 105.14-253.82 67.32-67.32 158.62-105.14 253.83-105.14zm-176.46 390.48 136.03 136.03c10.801 10.801 26.543 15.02 41.293 11.066 14.754-3.9531 26.277-15.477 30.23-30.23s-0.26562-30.492-11.066-41.293l-65.367-64.766h191.65c15.227 0 29.297-8.1211 36.91-21.309 7.6172-13.188 7.6172-29.438 0-42.625-7.6133-13.188-21.684-21.309-36.91-21.309h-190.74l64.312-64.387c10.797-10.801 15.016-26.543 11.062-41.293-3.9531-14.754-15.477-26.277-30.227-30.23-14.754-3.9531-30.496 0.26562-41.293 11.066l-136.03 136.03h-0.003906c-8.3672 8.3906-12.836 19.902-12.316 31.738v1.3633c-0.023437 11.309 4.4648 22.16 12.469 30.152z"/>
</svg>
