<?xml version="1.0" encoding="UTF-8"?>
<svg width="1200pt" height="1200pt" version="1.1" viewBox="0 0 1200 1200" xmlns="http://www.w3.org/2000/svg">
 <g>
  <path d="m600 392.39c6.2148 0 12.176-2.4688 16.574-6.8633 4.3945-4.3945 6.8633-10.355 6.8633-16.574v-85.062c0-8.3711-4.4688-16.109-11.719-20.297s-16.188-4.1875-23.438 0-11.719 11.926-11.719 20.297v85.062c0 6.2188 2.4688 12.18 6.8633 16.574 4.3984 4.3945 10.359 6.8633 16.574 6.8633z"/>
  <path d="m827.95 620.34c0 6.2148 2.4688 12.176 6.8633 16.57 4.3984 4.3945 10.359 6.8672 16.574 6.8672h85.062c8.375 0 16.113-4.4688 20.301-11.719 4.1836-7.2539 4.1836-16.188 0-23.438-4.1875-7.2539-11.926-11.719-20.301-11.719h-85.062c-6.2148 0-12.176 2.4688-16.574 6.8633-4.3945 4.3945-6.8633 10.355-6.8633 16.574z"/>
  <path d="m263.55 643.78h85.062c8.375 0 16.109-4.4688 20.297-11.719 4.1875-7.2539 4.1875-16.188 0-23.438-4.1875-7.2539-11.922-11.719-20.297-11.719h-85.062c-8.375 0-16.113 4.4648-20.301 11.719-4.1836 7.25-4.1836 16.184 0 23.438 4.1875 7.25 11.926 11.719 20.301 11.719z"/>
  <path d="m405.67 459.16c4.3906 4.4102 10.355 6.8945 16.582 6.9023 6.2266 0.007812 12.195-2.4648 16.598-6.8633 4.4023-4.4023 6.875-10.375 6.8672-16.602-0.007812-6.2227-2.4922-12.191-6.9023-16.582l-60.148-60.148c-4.3906-4.4219-10.359-6.9141-16.59-6.9258-6.2305-0.007812-12.207 2.4609-16.613 6.8672-4.4062 4.4023-6.875 10.383-6.8633 16.613 0.007813 6.2305 2.5 12.199 6.9219 16.59z"/>
  <path d="m777.76 466.02c6.2148 0.007812 12.18-2.4609 16.57-6.8633l60.148-60.148c4.4219-4.3906 6.9141-10.359 6.9219-16.59 0.011718-6.2305-2.457-12.211-6.8633-16.613-4.4062-4.4062-10.383-6.875-16.613-6.8672-6.2305 0.011719-12.199 2.5039-16.59 6.9258l-60.148 60.148c-4.3945 4.3945-6.8633 10.355-6.8633 16.57 0 6.2188 2.4688 12.18 6.8633 16.574 4.3945 4.3945 10.355 6.8633 16.574 6.8633z"/>
  <path d="m1012.6 697.6h-230.06c17.121-40.352 20.383-85.238 9.2812-127.64-11.105-42.402-35.949-79.934-70.648-106.71-34.699-26.781-77.301-41.312-121.13-41.312s-86.434 14.531-121.13 41.312c-34.699 26.781-59.543 64.312-70.648 106.71-11.102 42.406-7.8398 87.293 9.2812 127.64h-230.06c-8.3711 0-16.109 4.4688-20.297 11.719-4.1875 7.2539-4.1875 16.188 0 23.438 4.1875 7.2539 11.926 11.719 20.297 11.719h825.12c8.3711 0 16.109-4.4648 20.297-11.719 4.1875-7.25 4.1875-16.184 0-23.438-4.1875-7.25-11.926-11.719-20.297-11.719z"/>
  <path d="m851.97 795.13h-503.95c-8.3711 0-16.109 4.4688-20.297 11.719-4.1875 7.2539-4.1875 16.188 0 23.438 4.1875 7.2539 11.926 11.719 20.297 11.719h503.95c8.3711 0 16.109-4.4648 20.297-11.719 4.1875-7.25 4.1875-16.184 0-23.438-4.1875-7.25-11.926-11.719-20.297-11.719z"/>
  <path d="m676.65 892.67h-153.3c-8.3711 0-16.109 4.4648-20.297 11.719-4.1875 7.25-4.1875 16.184 0 23.438 4.1875 7.25 11.926 11.719 20.297 11.719h153.3c8.3711 0 16.109-4.4688 20.297-11.719 4.1875-7.2539 4.1875-16.188 0-23.438-4.1875-7.2539-11.926-11.719-20.297-11.719z"/>
 </g>
</svg>
