<?xml version="1.0" encoding="UTF-8"?>
<svg width="1200pt" height="1200pt" version="1.1" viewBox="0 0 1200 1200" xmlns="http://www.w3.org/2000/svg">
 <g>
  <path d="m566.59 1186.2c142.52 0 258.46-116.12 258.46-258.64 0-91.199-48-175.38-125.72-221.91v-559.2c0-73.109-59.629-132.55-132.74-132.55-73.109 0-132.74 59.445-132.74 132.55v559.2c-77.723 46.523-125.72 130.71-125.72 221.91-0.003906 142.53 115.94 258.65 258.46 258.65zm-89.762-420.12 30.891-17.137 0.003906-602.43c0-32.461 26.402-58.863 58.863-58.863 32.461 0 58.875 26.402 58.875 58.863v602.43l30.891 17.137c58.547 32.488 94.922 94.371 94.922 161.5 0 101.84-82.852 184.69-184.69 184.69-101.84 0-184.69-82.852-184.69-184.69 0-67.125 36.375-129.01 94.93-161.5z"/>
  <path d="m566.58 1084.5c86.566 0 157-70.43 157-157 0-57.078-30.91-109.68-80.66-137.29l-38.023-21.094c-4.3984-2.4414-7.1289-7.0781-7.1289-12.105l-0.003906-610.57c0-17.48-13.691-31.172-31.18-31.172-17.191 0-31.172 13.98-31.172 31.172v610.57c0 5.0312-2.7305 9.6641-7.1289 12.105l-38.023 21.094c-49.758 27.609-80.672 80.219-80.672 137.29 0 86.566 70.43 157 157 157z"/>
  <path d="m759.3 194.21h77.191v27.691h-77.191z"/>
  <path d="m759.3 87.602h132.57v27.691h-132.57z"/>
  <path d="m759.3 300.83h132.57v27.691h-132.57z"/>
  <path d="m759.3 407.45h95.652v27.691h-95.652z"/>
  <path d="m759.3 514.06h77.191v27.691h-77.191z"/>
  <path d="m759.3 620.68h132.57v27.691h-132.57z"/>
 </g>
</svg>
